
<svg version="1.1" id="Layer_1" xmlns="http://www.w3.org/2000/svg" xmlns:xlink="http://www.w3.org/1999/xlink" x="0px" y="0px"
	 width="185px" height="25px" viewBox="0 0 185 25" style="enable-background:new 0 0 185 25;" xml:space="preserve">
<style type="text/css">
	.st0{fill:#3D3834;}
</style>
<g>
	<g>
		<path class="st0" d="M22.4,10c-0.3,0.5-2,3-3.3,5l7.7-1.1l0.6-0.1c1.4-0.2,1.9-1.5,2-1.8c1.6-3.5,3.2-3.7,6.2-4.3
			C42,6.3,45,1.2,45,1.1c-3.6,0.6-8.9,1.5-8.9,1.5C26.3,4.4,24.1,7.2,22.4,10z"/>
		<path class="st0" d="M24.8,21.2c0,0,8.5-1,11.6-2c5.3-1.8,7.1-5.8,7.1-5.8c0,0-8.1,0.9-11.7,2.5C31.1,16.2,28.8,16.7,24.8,21.2z"
			/>
		<path class="st0" d="M19.9,21.8c5.1-2.4,6.4-5.5,6.4-5.5s-1.3,0.1-3.1,0.4l-6.4,0.9c-0.6,0.8-1.7,2.1-2,2.4
			c-0.8,0.9-1.3,0.9-3.3,1.1c-0.5,0-0.7-0.3-0.4-0.9l2.1-3.2c0.2-0.4,0.5-0.8,0.6-1l7-10.7C14,6.8,9.6,9.9,7.7,12.8L0,25h0l18.4-2.6
			C18.9,22.2,19.5,22,19.9,21.8z"/>
	</g>
	<g>
		<polygon class="st0" points="54.9,5.4 53.5,5.4 53.5,17.6 64.3,17.6 64.3,16.4 54.9,16.4 		"/>
		<rect x="66.3" y="5.4" class="st0" width="1.4" height="12.1"/>
		<polygon class="st0" points="70.2,17.6 71.6,17.6 71.6,12 81,12 81,10.9 71.6,10.9 71.6,6.7 81.5,6.7 81.5,5.4 70.2,5.4 		"/>
		<polygon class="st0" points="84.9,11.9 94.9,11.9 94.9,10.7 84.9,10.7 84.9,6.7 95.2,6.7 95.2,5.4 83.5,5.4 83.5,17.6 95.3,17.6 
			95.3,16.4 84.9,16.4 		"/>
		<polygon class="st0" points="124.7,10.8 115.8,10.8 115.8,5.4 114.5,5.4 114.5,17.6 115.8,17.6 115.8,11.9 124.7,11.9 124.7,17.6 
			126.1,17.6 126.1,5.4 124.7,5.4 		"/>
		<polygon class="st0" points="182.1,10.8 173.2,10.8 173.2,5.4 171.9,5.4 171.9,17.6 173.2,17.6 173.2,11.9 182.1,11.9 182.1,17.6 
			183.5,17.6 183.5,5.4 182.1,5.4 		"/>
		<path class="st0" d="M140.4,12.9c0,2.9-2,4.9-6,4.9c-4,0-6-2-6-4.9V5.4h1.4v7.2h0c0,3.4,3.2,4,4.7,4c1.4,0,4.7-0.6,4.7-4h0V5.4
			h1.4V12.9z"/>
		<path class="st0" d="M153.3,11.5c1.2-0.5,1.9-1.5,1.9-2.8c0-2.1-1.4-3.3-3.8-3.3h-8.8v12.1h1.4V12h7c2,0,2.8,1.2,2.8,3.1v2.5h1.4
			v-2.7C155.2,13,154.4,12,153.3,11.5z M151.6,10.8H144V6.7h7.6c1.4,0,2.2,0.7,2.2,2.1S153,10.8,151.6,10.8z"/>
		<path class="st0" d="M106.1,16.7c-1.6,0-5.4-0.7-5.4-5.2c0-4.4,3.7-5.2,5.4-5.2c1.7,0,4.3,0.7,5.1,3.3l1.3,0
			c-0.7-3-3.5-4.5-6.4-4.5c-3.7,0-6.7,2-6.7,6.3c0,4.3,3,6.3,6.7,6.3c2.9,0,5.4-1.1,6.4-4.2l-1.4,0C110.3,16,107.7,16.7,106.1,16.7z
			"/>
		<path class="st0" d="M163.5,16.7c-1.6,0-5.4-0.7-5.4-5.2c0-4.4,3.7-5.2,5.4-5.2c1.7,0,4.3,0.7,5.1,3.3l1.3,0
			c-0.7-3-3.5-4.5-6.4-4.5c-3.7,0-6.7,2-6.7,6.3c0,4.3,3,6.3,6.7,6.3c2.9,0,5.4-1.1,6.4-4.2l-1.4,0C167.7,16,165.1,16.7,163.5,16.7z
			"/>
		<rect x="97.1" y="16.1" class="st0" width="1.5" height="1.5"/>
	</g>
</g>
</svg>
